<?xml version="1.0" encoding="UTF-8"?>
<svg id="Layer_2" data-name="Layer 2" xmlns="http://www.w3.org/2000/svg" viewBox="0 0 637.62 193.57">
  <defs>
    <style>
      .cls-1 {
        fill: #fff;
        stroke-width: 0px;
      }
    </style>
  </defs>
  <g id="Layer_2-2" data-name="Layer 2">
    <g>
      <path class="cls-1" d="M12.31,111.51h29.84c0,7.5,5.79,11.15,12.38,11.15,6.06,0,11.85-3.22,11.85-8.96,0-6.59-8.17-8.5-18.17-10.92-15.18-3.77-34.55-8.42-34.55-32.33,0-20.68,15.19-32.52,39.95-32.52s39.61,12.92,39.61,34.28h-29.01c0-6.64-4.95-9.75-10.95-9.75-5.15,0-10.1,2.23-10.1,7.13,0,5.96,7.91,7.94,17.8,10.42,15.45,3.99,35.66,9.15,35.66,33.13s-17.62,34.83-42,34.83c-25.7,0-42.31-13.58-42.31-36.47Z"/>
      <path class="cls-1" d="M184.57,64.42l-33.95,77.39c-10.92,24.79-20.95,33.74-41.87,33.74h-9.55v-23.97h7.67c10.67,0,13.89-2.78,17.67-12.86l-33.47-74.31h30.32l17.19,44.62,16.02-44.62h29.97Z"/>
      <path class="cls-1" d="M263.96,96.03v49.39h-27.9v-45.53c0-9.43-3.54-14.1-10.56-14.1-8.7,0-13.71,6.08-13.71,16.38v43.25h-27.9v-81h19.57l3.83,8.35c6.03-6.72,15.02-10.75,25.5-10.75,18.81,0,31.16,13.37,31.16,34Z"/>
      <path class="cls-1" d="M270.59,110.64v-46.23h27.9v45.01c0,8.55,4.6,13.58,12.05,13.58s11.96-5.11,11.96-13.58v-45.01h27.9v46.23c0,22.66-15.93,37.43-39.86,37.43s-39.95-14.76-39.95-37.43Z"/>
      <path class="cls-1" d="M447.68,104.92c0,25.24-17.7,43.24-42.47,43.24-7.32,0-14.03-1.93-19.75-5.38v31.89h-27.58v-110.25h18.97l3.5,6.43c6.66-5.76,15.23-9.09,24.86-9.09,24.77,0,42.47,17.92,42.47,43.15ZM419.61,104.92c0-10.64-7.68-18.54-18.13-18.54s-18.13,7.9-18.13,18.54,7.68,18.54,18.13,18.54,18.13-7.9,18.13-18.54Z"/>
      <path class="cls-1" d="M482.74,148.07c-22.08,0-35.49-11.66-35.75-29.21h26.85c0,5.92,4.12,8.65,9.41,8.65,4.08,0,7.95-2.08,7.95-6.27,0-4.67-6.13-6-13.91-7.29-12.56-2.04-29.21-5.83-29.21-25.47,0-16.24,13.83-26.72,34.59-26.72s33.99,10.97,34.31,27.38h-26.13c0-5.17-3.48-7.58-8.53-7.58-4.47,0-7.48,2.21-7.48,5.97,0,4.61,6.19,5.68,13.89,7.05,12.79,2.27,29.81,4.93,29.81,25.47,0,16.93-14.29,28-35.81,28h0Z"/>
      <path class="cls-1" d="M522.59,64.42h27.9v81h-27.9v-81ZM522.8,30.61h27.47v23.68h-27.47v-23.68Z"/>
      <path class="cls-1" d="M590.28,148.07c-22.08,0-35.49-11.66-35.75-29.21h26.85c0,5.92,4.12,8.65,9.41,8.65,4.08,0,7.95-2.08,7.95-6.27,0-4.67-6.13-6-13.91-7.29-12.56-2.04-29.21-5.83-29.21-25.47,0-16.24,13.83-26.72,34.59-26.72s33.99,10.97,34.31,27.38h-26.13c0-5.17-3.48-7.58-8.53-7.58-4.47,0-7.48,2.21-7.48,5.97,0,4.61,6.19,5.68,13.89,7.05,12.79,2.27,29.81,4.93,29.81,25.47,0,16.93-14.29,28-35.81,28h0Z"/>
    </g>
  </g>
</svg>